<svg width="30" height="24" viewBox="0 0 30 24" fill="none" xmlns="http://www.w3.org/2000/svg">
<g id="icon-guia">
<rect id="Rectangle 14" x="1" y="4" width="28" height="19" stroke="white" stroke-width="2"/>
<path id="Rectangle 15" d="M4 20.2257V1.25482L14.3768 3.63052L14.5928 3.67996L14.8094 3.63356L26 1.23685V20.2131L14.6081 22.9692L4 20.2257Z" fill="#000352" stroke="white" stroke-width="2"/>
<line id="Line 2" x1="14" y1="23.25" x2="14" y2="3.75" stroke="white" stroke-width="2"/>
<line id="Line 3" x1="5.54428" y1="17.6393" x2="12.2233" y2="19.4289" stroke="white" stroke-width="2"/>
<line id="Line 6" x1="5.54428" y1="13.8893" x2="12.2233" y2="15.6789" stroke="white" stroke-width="2"/>
<line id="Line 12" x1="16.2412" y1="19.5737" x2="22.9202" y2="17.7841" stroke="white" stroke-width="2"/>
<line id="Line 13" x1="16.2412" y1="16.5737" x2="22.9202" y2="14.7841" stroke="white" stroke-width="2"/>
<line id="Line 14" x1="16.2856" y1="13.0689" x2="19.1968" y2="12.2889" stroke="white" stroke-width="2"/>
<line id="Line 7" x1="5.52188" y1="7.23372" x2="11.4958" y2="8.83443" stroke="white" stroke-width="2"/>
<line id="Line 9" x1="5.51535" y1="4.2589" x2="8.50231" y2="5.05925" stroke="white" stroke-width="2"/>
<line id="Line 8" x1="5.51535" y1="10.2589" x2="8.50231" y2="11.0593" stroke="white" stroke-width="2"/>
<line id="Line 10" x1="9.32242" y1="11.4409" x2="11.4958" y2="12.0232" stroke="white" stroke-width="2"/>
<circle id="Ellipse 3" cx="15.75" cy="4.5" r="3.5" fill="#000352" stroke="white" stroke-width="2"/>
<line id="Line 11" x1="17.9571" y1="6.79289" x2="20.9571" y2="9.79289" stroke="white" stroke-width="2"/>
<rect id="Rectangle 16" x="19.1268" y="10.2103" width="2.48231" height="5.08569" rx="1.24115" transform="rotate(-45 19.1268 10.2103)" fill="#000352" stroke="white"/>
</g>
</svg>
