<svg width="30" height="24" viewBox="0 0 30 24" fill="none" xmlns="http://www.w3.org/2000/svg">
<g id="icon-contato">
<path id="Rectangle 20" d="M0 23.2414C0 17.7185 4.47715 13.2414 10 13.2414H11.6177C17.1405 13.2414 21.6176 17.7185 21.6176 23.2414V24H0V23.2414Z" fill="white"/>
<ellipse id="Ellipse 6" cx="10.5883" cy="6.62069" rx="5.73529" ry="5.37931" fill="white"/>
<path id="Rectangle 21" d="M19.853 2C19.853 0.895431 20.7484 0 21.853 0H28C29.1046 0 30 0.895431 30 2V5.44828C30 6.55284 29.1046 7.44828 28 7.44828H27.3758C26.9391 7.44828 26.5221 7.62956 26.2242 7.94883V7.94883C25.6298 8.58601 24.6309 8.61934 23.9954 8.02321L23.8816 7.91654C23.5609 7.6157 23.1376 7.44828 22.6979 7.44828H21.853C20.7484 7.44828 19.853 6.55285 19.853 5.44828V2Z" fill="white"/>
<ellipse id="Ellipse 7" cx="27.7942" cy="3.72414" rx="0.882353" ry="0.827586" fill="black"/>
<ellipse id="Ellipse 8" cx="25.1471" cy="3.72414" rx="0.882353" ry="0.827586" fill="black"/>
<ellipse id="Ellipse 9" cx="22.5" cy="3.72414" rx="0.882353" ry="0.827586" fill="black"/>
</g>
</svg>
