<svg width="30" height="24" viewBox="0 0 30 24" fill="none" xmlns="http://www.w3.org/2000/svg">
<g id="Group 1">
<path id="Rectangle 54" d="M0 9.21199C0 8.94473 0.141741 8.69752 0.372389 8.5625L15 0L29.6276 8.5625C29.8583 8.69752 30 8.94473 30 9.21199V9.21199C30 9.62237 29.6712 9.9571 29.2609 9.96444L27.2727 10V22C27.2727 23.1046 26.3773 24 25.2727 24H18.4091V16.6667C18.4091 15.5621 17.5137 14.6667 16.4091 14.6667H13.5909C12.4863 14.6667 11.5909 15.5621 11.5909 16.6667V24H4.72727C3.6227 24 2.72727 23.1046 2.72727 22V10L0.739115 9.96444C0.328793 9.9571 0 9.62237 0 9.21199V9.21199Z" fill="white"/>
</g>
</svg>
