<svg width="31" height="25" viewBox="0 0 31 25" fill="none" xmlns="http://www.w3.org/2000/svg">
<g id="icon-vagas">
<g id="Rectangle 10">
<mask id="path-1-inside-1_37_47" fill="white">
<path d="M10.2427 2.90625C10.2427 1.80168 11.1382 0.90625 12.2427 0.90625H19.6713C20.7759 0.90625 21.6713 1.80168 21.6713 2.90625V5.04946C21.6713 6.15403 20.7759 7.04946 19.6713 7.04946H12.2427C11.1382 7.04946 10.2427 6.15403 10.2427 5.04946V2.90625Z"/>
</mask>
<path d="M10.2427 2.90625C10.2427 1.80168 11.1382 0.90625 12.2427 0.90625H19.6713C20.7759 0.90625 21.6713 1.80168 21.6713 2.90625V5.04946C21.6713 6.15403 20.7759 7.04946 19.6713 7.04946H12.2427C11.1382 7.04946 10.2427 6.15403 10.2427 5.04946V2.90625Z" fill="#000352"/>
<path d="M8.24274 2.90625C8.24274 0.697111 10.0336 -1.09375 12.2427 -1.09375H19.6713C21.8804 -1.09375 23.6713 0.697111 23.6713 2.90625H19.6713H12.2427H8.24274ZM21.6713 7.04946H10.2427H21.6713ZM12.2427 7.04946C10.0336 7.04946 8.24274 5.2586 8.24274 3.04946V2.90625C8.24274 0.697111 10.0336 -1.09375 12.2427 -1.09375V2.90625V5.04946C12.2427 6.15403 12.2427 7.04946 12.2427 7.04946ZM19.6713 -1.09375C21.8804 -1.09375 23.6713 0.697111 23.6713 2.90625V3.04946C23.6713 5.2586 21.8804 7.04946 19.6713 7.04946C19.6713 7.04946 19.6713 6.15403 19.6713 5.04946V2.90625V-1.09375Z" fill="white" mask="url(#path-1-inside-1_37_47)"/>
</g>
<g id="Rectangle 9">
<mask id="path-3-inside-2_37_47" fill="white">
<path d="M1.70496 9.7191C1.70496 7.50996 3.49582 5.7191 5.70496 5.7191H26.3884C28.5976 5.7191 30.3884 7.50996 30.3884 9.7191V20.9062C30.3884 23.1154 28.5976 24.9063 26.3884 24.9063H5.70496C3.49582 24.9063 1.70496 23.1154 1.70496 20.9063V9.7191Z"/>
</mask>
<path d="M1.70496 9.7191C1.70496 7.50996 3.49582 5.7191 5.70496 5.7191H26.3884C28.5976 5.7191 30.3884 7.50996 30.3884 9.7191V20.9062C30.3884 23.1154 28.5976 24.9063 26.3884 24.9063H5.70496C3.49582 24.9063 1.70496 23.1154 1.70496 20.9063V9.7191Z" fill="#000352"/>
<path d="M1.70496 5.7191H30.3884H1.70496ZM32.3884 20.9063C32.3884 24.22 29.7021 26.9063 26.3884 26.9063H5.70496C2.39125 26.9063 -0.295044 24.22 -0.295044 20.9063H3.70496C3.70496 22.0108 4.60039 22.9063 5.70496 22.9063H26.3884C27.493 22.9063 28.3884 22.0108 28.3884 20.9063H32.3884ZM5.70496 26.9063C2.39125 26.9063 -0.295044 24.22 -0.295044 20.9063V11.7191C-0.295044 8.40539 2.39125 5.7191 5.70496 5.7191C4.60039 5.7191 3.70496 7.50996 3.70496 9.7191V20.9063C3.70496 22.0108 4.60039 22.9063 5.70496 22.9063V26.9063ZM26.3884 5.7191C29.7021 5.7191 32.3884 8.40539 32.3884 11.7191V20.9063C32.3884 24.22 29.7021 26.9063 26.3884 26.9063V22.9063C27.493 22.9063 28.3884 22.0108 28.3884 20.9063V9.7191C28.3884 7.50996 27.493 5.7191 26.3884 5.7191Z" fill="white" mask="url(#path-3-inside-2_37_47)"/>
</g>
<path id="Rectangle 11" d="M4.17122 13.965L4.16141 13.9613L4.15152 13.9577L2.61968 13.4088C2.22221 13.2664 1.95703 12.8896 1.95703 12.4674V7.6843C1.95703 7.13201 2.40475 6.6843 2.95703 6.6843H28.957C29.5093 6.6843 29.957 7.13201 29.957 7.6843V12.6143C29.957 12.9995 29.7357 13.3505 29.3882 13.5166L28.4195 13.9794L26.6979 14.6375L24.7471 15.2589C24.6922 15.2764 24.6359 15.2891 24.5788 15.2969L22.2704 15.612L18.7665 15.9468H15.957H13.51L10.3632 15.6127L8.04954 15.2969C7.99247 15.2891 7.93618 15.2764 7.88129 15.2589L5.93044 14.6375L4.17122 13.965Z" fill="#000352" stroke="white" stroke-width="2"/>
<rect id="Rectangle 12" x="15.0284" y="15.0578" width="1.85714" height="2.41289" rx="0.5" fill="#000352" stroke="white"/>
</g>
</svg>
