<svg width="32" height="26" viewBox="0 0 32 26" fill="none" xmlns="http://www.w3.org/2000/svg">
<g id="incon-duvidas">
<path id="Ellipse 5" d="M21.9091 25.5C27.1608 25.5 31.5 21.6141 31.5 16.7241C31.5 11.8342 27.1608 7.94828 21.9091 7.94828C16.6574 7.94828 12.3182 11.8342 12.3182 16.7241C12.3182 21.6141 16.6574 25.5 21.9091 25.5Z" fill="white" stroke="#010453"/>
<path id="Rectangle 18" d="M23.7273 22.5172H27.8182L30.5455 25H21L23.7273 22.5172Z" fill="white"/>
<path id="Ellipse 4" d="M10.0909 18.0517C15.3426 18.0517 19.6818 14.1658 19.6818 9.27586C19.6818 4.38593 15.3426 0.5 10.0909 0.5C4.83923 0.5 0.5 4.38593 0.5 9.27586C0.5 14.1658 4.83923 18.0517 10.0909 18.0517Z" fill="white" stroke="#010453"/>
<path id="Rectangle 19" d="M3.72727 15.069H7.81818L10.5455 17.5517H1L3.72727 15.069Z" fill="white"/>
<line id="Line 15" x1="18.2728" y1="14.8965" x2="25.5455" y2="14.8965" stroke="black" stroke-width="2"/>
<line id="Line 16" x1="18.2728" y1="18.2069" x2="25.5455" y2="18.2069" stroke="black" stroke-width="2"/>
</g>
</svg>
