<svg width="65" height="71" viewBox="0 0 65 71" fill="none" xmlns="http://www.w3.org/2000/svg">
<g id="logo?">
<circle id="Ellipse 13" cx="32.5" cy="38.5" r="31" fill="#000352" stroke="#AEB1B4" stroke-width="3"/>
<circle id="Ellipse 14" cx="33" cy="39" r="24" fill="#000352" stroke="#AEB1B4" stroke-width="2"/>
<path id="Ellipse 15" d="M38 27.2877C38 28.805 37.3433 31.0591 36.2349 32.938C35.6864 33.8679 35.0566 34.6546 34.3951 35.1983C33.7341 35.7416 33.0964 36 32.5 36C31.9036 36 31.2659 35.7416 30.6049 35.1983C29.9434 34.6546 29.3136 33.8679 28.7651 32.938C27.6567 31.0591 27 28.805 27 27.2877C27 24.3984 29.4309 22 32.5 22C35.5691 22 38 24.3984 38 27.2877Z" fill="#000352" stroke="#AEB1B4" stroke-width="2"/>
<path id="Rectangle 36" d="M13.5 51L37.5 54.0302V67.5302L10 57.5L13.5 51Z" fill="#000352"/>
<path id="Rectangle 30" d="M32.5 43.64H32.9697L33.2696 43.2786L36.1541 39.8021L32.1808 46.7855L31.9649 47.165L32.0965 47.5814L34.2786 54.4847L35.8069 62.5432L31.95 65.7067L28.0931 62.5432L29.6214 54.4847L31.8035 47.5814L31.928 47.1875L31.7382 46.8206L28.8393 41.216L28.9862 41.1127L30.6033 43.2444L30.9034 43.64H31.4H32.5Z" fill="#000352" stroke="#AEB1B4" stroke-width="2"/>
<path id="Rectangle 32" d="M11.5 50L15 41.5L26.5 38V39.5L16.5 42.5L12.5 52L11.5 50Z" fill="#AEB1B4" stroke="#AEB1B4"/>
<path id="Rectangle 33" d="M39.5 36.5L46.5 35L51.1764 23.7767L52.6764 25.2767L48 36.5L39.5 38V36.5Z" fill="#AEB1B4" stroke="#AEB1B4"/>
<path id="Rectangle 35" d="M39 3.5L65 22.5L64.5 26H58L52 21.5L50 25L39 21.5V3.5Z" fill="#000352"/>
<path id="Rectangle 34" d="M43 10.0571H49.3529L52 3L54.6471 10.0571H61L56.2353 14.9429L58.3529 22L52 17.6571L45.1176 22L47.7647 14.9429L43 10.0571Z" fill="#000352" stroke="#AEB1B4" stroke-width="2"/>
</g>
</svg>
